<svg xmlns="http://www.w3.org/2000/svg" width="1600" height="1000">
<defs><filter id="a"><feDropShadow dy="24" stdDeviation="24" flood-color="#49351f" flood-opacity=".2"/></filter></defs><rect width="1600" height="1000" fill="#e9dfd2"/><text x="70" y="76" font-family="Arial" font-size="18" font-weight="700" letter-spacing="3" fill="#857565">DIRECTION 02 · LIVING CONTENTS</text><g filter="url(#a)"><rect x="605" y="78" width="390" height="844" fill="#f7f1e7" stroke="#cfc1b0"/></g>
<text x="629" y="121" font-family="Georgia" font-size="22" font-weight="700" fill="#2b2620">Life on Paper</text><rect x="935" y="98" width="36" height="36" rx="4" fill="none" stroke="#d9cdbd"/><rect x="946" y="108" width="12" height="16" fill="none" stroke="#2b2620"/><circle cx="958" cy="108" r="3" fill="#b79442"/>
<text x="629" y="178" font-family="Arial" font-size="10" font-weight="700" letter-spacing="2" fill="#c1592b">YOUR BOOK IN PROGRESS</text><text x="629" y="227" font-family="Georgia" font-size="48" font-weight="700" fill="#2b2620">Summer</text><text x="629" y="273" font-family="Georgia" font-size="48" font-weight="700" fill="#2b2620">of Firsts</text><text x="629" y="307" font-family="Georgia" font-size="16" fill="#796f63">Your life, one page at a time</text>
<line x1="629" y1="348" x2="971" y2="348" stroke="#2b2620"/><rect x="629" y="363" width="47" height="60" fill="#fcf8f0" stroke="#d9cdbd"/><path d="M638 378h29m-29 10h29m-29 10h29" stroke="#786e63"/><text x="692" y="375" font-family="Arial" font-size="9" font-weight="700" letter-spacing="1.4" fill="#796f63">CONTINUE READING</text><text x="692" y="401" font-family="Georgia" font-size="18" font-weight="700" fill="#2b2620">Where courage first appeared</text><text x="946" y="414" font-family="Arial" font-size="11" font-weight="700" fill="#c1592b">38</text><line x1="629" y1="440" x2="971" y2="440" stroke="#d9cdbd"/>
<text x="629" y="486" font-family="Arial" font-size="10" font-weight="700" letter-spacing="1.8" fill="#796f63">CONTENTS</text><text x="934" y="486" font-family="Arial" font-size="9" fill="#796f63">6 pages</text>
<g font-family="Georgia" fill="#2b2620"><line x1="629" y1="502" x2="971" y2="502" stroke="#d9cdbd"/><text x="633" y="536" font-size="12" fill="#b79442">I</text><text x="663" y="538" font-size="22">Becoming</text><text x="951" y="541" font-family="Arial" font-size="19" fill="#796f63">→</text><text x="663" y="555" font-family="Arial" font-size="9" fill="#796f63">3 PAGES</text>
<line x1="629" y1="570" x2="971" y2="570" stroke="#d9cdbd"/><text x="633" y="604" font-size="12" fill="#b79442">II</text><text x="663" y="606" font-size="22">People Who Changed Me</text><text x="951" y="609" font-family="Arial" font-size="19" fill="#796f63">→</text><text x="663" y="623" font-family="Arial" font-size="9" fill="#796f63">2 PAGES</text>
<line x1="629" y1="638" x2="971" y2="638" stroke="#d9cdbd"/><text x="633" y="672" font-size="12" fill="#b79442">III</text><text x="663" y="674" font-size="22">Places I Carried Home</text><text x="951" y="677" font-family="Arial" font-size="19" fill="#796f63">→</text><text x="663" y="691" font-family="Arial" font-size="9" fill="#796f63">1 PAGE</text></g><line x1="629" y1="706" x2="971" y2="706" stroke="#d9cdbd"/>
<line x1="630" y1="747" x2="630" y2="814" stroke="#c1592b" stroke-width="3"/><text x="648" y="759" font-family="Arial" font-size="9" font-weight="700" fill="#796f63">NEWEST PAGE · BECOMING</text><text x="648" y="789" font-family="Georgia" font-size="24" fill="#2b2620">The Patience Someone</text><text x="648" y="816" font-family="Georgia" font-size="24" fill="#2b2620">Else Noticed</text>
<rect x="605" y="839" width="390" height="83" fill="#f7f1e7" stroke="#d9cdbd"/><rect x="771" y="823" width="58" height="58" rx="6" fill="#c1592b" stroke="#f7f1e7" stroke-width="6"/><text x="786" y="862" font-family="Arial" font-size="29" fill="white">＋</text><text x="636" y="882" font-family="Arial" font-size="18" fill="#2b2620">⌂</text><text x="706" y="882" font-family="Arial" font-size="17" fill="#796f63">▥</text><text x="868" y="882" font-family="Arial" font-size="18" fill="#796f63">♧</text><text x="939" y="882" font-family="Arial" font-size="18" fill="#796f63">○</text>
<text x="612" y="952" font-family="Arial" font-size="14" fill="#786e63">The easiest navigation: your memoir behaves like a living table of contents.</text></svg>
